<!-- Generated by IcoMoon.io -->
<svg fill="#fff" version="1.1" xmlns="http://www.w3.org/2000/svg" width="24" height="24" viewBox="0 0 24 24">
<path d="M4.798 15.75c-0.134 0-0.27-0.026-0.4-0.084-1.457-0.639-2.398-2.077-2.398-3.666 0-1.861 1.277-3.429 3.001-3.874-0.001-0.042-0.001-0.084-0.001-0.126 0-3.309 2.691-6 6-6 2.932 0 5.413 2.104 5.902 5.001 0.092 0.544-0.275 1.061-0.82 1.152-0.544 0.083-1.060-0.276-1.152-0.82-0.326-1.931-1.979-3.333-3.93-3.333-2.206 0-4 1.794-4 4 0 0.272 0.027 0.546 0.081 0.812l0.259 1.27-1.431-0.088c-1.012 0.006-1.909 0.903-1.909 2.006 0 0.795 0.471 1.515 1.2 1.834 0.506 0.222 0.736 0.812 0.515 1.317-0.164 0.375-0.531 0.599-0.917 0.599z"></path>
<path d="M19 7c-0.553 0-1 0.447-1 1s0.447 1 1 1c0.552 0 1 0.448 1 1s-0.448 1-1 1h-9.6c-0.553 0-1 0.447-1 1s0.447 1 1 1h4.6c0.552 0 1 0.448 1 1s-0.448 1-1 1h-5c-1.654 0-3 1.346-3 3s1.346 3 3 3c0.553 0 1-0.447 1-1s-0.447-1-1-1c-0.552 0-1-0.448-1-1s0.448-1 1-1h5c1.654 0 3-1.346 3-3 0-0.353-0.072-0.686-0.185-1h2.185c1.654 0 3-1.346 3-3s-1.346-3-3-3z"></path>
</svg>
