<!-- Generated by IcoMoon.io -->
<svg fill="#fff" version="1.1" xmlns="http://www.w3.org/2000/svg" width="24" height="24" viewBox="0 0 24 24">
<path d="M15 22c-0.552 0-1-0.447-1-1v-6c0-0.553 0.448-1 1-1s1 0.447 1 1v6c0 0.553-0.448 1-1 1z"></path>
<path d="M9 22c-0.552 0-1-0.447-1-1v-6c0-0.553 0.448-1 1-1s1 0.447 1 1v6c0 0.553-0.448 1-1 1z"></path>
<path d="M12 24c-0.552 0-1-0.447-1-1v-6c0-0.553 0.448-1 1-1s1 0.447 1 1v6c0 0.553-0.448 1-1 1z"></path>
<path d="M6 18c-2.206 0-4-1.794-4-4 0-1.861 1.277-3.429 3.001-3.874-0.001-0.042-0.001-0.084-0.001-0.126 0-3.309 2.691-6 6-6 2.587 0 4.824 1.639 5.65 4.015 2.936-0.244 5.35 2.113 5.35 4.985 0 2.241-1.507 4.223-3.666 4.819-0.535 0.146-1.083-0.166-1.23-0.697-0.147-0.532 0.165-1.083 0.698-1.23 1.294-0.358 2.198-1.547 2.198-2.892 0-1.654-1.346-3-3-3-0.242 0-0.499 0.041-0.811 0.13l-1.074 0.306-0.185-1.102c-0.326-1.932-1.978-3.334-3.93-3.334-2.206 0-4 1.794-4 4 0 0.272 0.027 0.545 0.082 0.808l0.248 1.202-1.422-0.016c-1.011 0.006-1.908 0.903-1.908 2.006s0.897 2 2 2c0.552 0 1 0.447 1 1s-0.448 1-1 1z"></path>
</svg>
