<!-- Generated by IcoMoon.io -->
<svg fill="#fff" version="1.1" xmlns="http://www.w3.org/2000/svg" width="24" height="24" viewBox="0 0 24 24">
<path d="M17 18c-0.552 0-1-0.447-1-1s0.448-1 1-1c1.654 0 3-1.346 3-3s-1.346-3-3-3c-0.243 0-0.5 0.041-0.81 0.13l-1.075 0.307-0.185-1.103c-0.326-1.932-1.978-3.334-3.93-3.334-2.206 0-4 1.794-4 4 0 0.272 0.027 0.545 0.082 0.811l0.244 1.199-1.42-0.016c-1.009 0.006-1.906 0.903-1.906 2.006s0.897 2 2 2c0.552 0 1 0.447 1 1s-0.448 1-1 1c-2.206 0-4-1.794-4-4 0-1.861 1.277-3.429 3.001-3.874-0.001-0.042-0.001-0.084-0.001-0.126 0-3.309 2.691-6 6-6 2.587 0 4.824 1.638 5.65 4.015 2.939-0.244 5.35 2.113 5.35 4.985 0 2.757-2.243 5-5 5z"></path>
<path d="M10.5 18l1-3 1 3c0.184 0.553-0.114 1.149-0.667 1.333-0.552 0.185-1.149-0.114-1.333-0.666-0.075-0.226-0.070-0.458 0-0.667z"></path>
<path d="M13.5 20l1-3 1 3c0.184 0.553-0.114 1.149-0.667 1.333-0.552 0.185-1.149-0.114-1.333-0.666-0.075-0.226-0.070-0.458 0-0.667z"></path>
<path d="M7.5 20l1-3 1 3c0.184 0.553-0.114 1.149-0.667 1.333-0.552 0.185-1.149-0.114-1.333-0.666-0.075-0.226-0.070-0.458 0-0.667z"></path>
</svg>
