<!-- Generated by IcoMoon.io -->
<svg fill="#fff" version="1.1" xmlns="http://www.w3.org/2000/svg" width="24" height="24" viewBox="0 0 24 24">
<path d="M20.5 15.134l-2.457-0.503 1.483-0.396c0.533-0.143 0.85-0.69 0.707-1.225-0.142-0.533-0.689-0.85-1.225-0.707l-1.508 0.403c0.037-0.231 0.071-0.464 0.071-0.706s-0.034-0.476-0.071-0.707l1.51 0.404c0.087 0.023 0.174 0.034 0.26 0.034 0.441 0 0.846-0.295 0.965-0.741 0.143-0.533-0.174-1.082-0.707-1.225l-1.483-0.397 2.455-0.502c0.216-0.044 0.42-0.156 0.577-0.333 0.386-0.436 0.347-1.102-0.089-1.488s-1.102-0.347-1.488 0.089l-1.663 1.874 0.398-1.479c0.144-0.533-0.173-1.082-0.706-1.226-0.531-0.142-1.082 0.173-1.226 0.706l-0.407 1.517c-0.366-0.299-0.771-0.544-1.219-0.717l1.102-1.102c0.391-0.391 0.391-1.023 0-1.414s-1.023-0.391-1.414 0l-1.086 1.086 0.793-2.379c0.069-0.209 0.075-0.441 0-0.667-0.184-0.552-0.781-0.851-1.333-0.666s-0.85 0.78-0.667 1.333l0.793 2.379-1.086-1.086c-0.391-0.391-1.023-0.391-1.414 0s-0.391 1.023 0 1.414l1.102 1.102c-0.447 0.173-0.853 0.419-1.219 0.717l-0.405-1.515c-0.143-0.534-0.697-0.852-1.224-0.708-0.534 0.143-0.851 0.69-0.708 1.224l0.396 1.485-1.662-1.877c-0.146-0.164-0.345-0.285-0.578-0.333-0.57-0.117-1.127 0.25-1.244 0.82s0.251 1.128 0.822 1.245l2.454 0.503-1.48 0.396c-0.533 0.143-0.85 0.691-0.707 1.225 0.119 0.447 0.523 0.741 0.965 0.741 0.086 0 0.173-0.011 0.26-0.034l1.508-0.404c-0.039 0.231-0.073 0.465-0.073 0.706s0.034 0.475 0.071 0.707l-1.508-0.404c-0.532-0.142-1.081 0.173-1.225 0.707-0.144 0.533 0.174 1.082 0.707 1.225l1.483 0.397-2.455 0.502c-0.216 0.044-0.42 0.156-0.577 0.334-0.387 0.436-0.347 1.102 0.089 1.487 0.436 0.387 1.103 0.347 1.488-0.089l1.665-1.878-0.398 1.484c-0.144 0.533 0.173 1.082 0.707 1.225 0.087 0.023 0.174 0.034 0.26 0.034 0.441 0 0.845-0.294 0.965-0.741l0.406-1.515c0.366 0.298 0.771 0.544 1.22 0.716l-1.104 1.102c-0.391 0.39-0.391 1.023 0 1.414s1.023 0.391 1.414 0l0.706-0.707h0.252l-0.666 1.999c-0.069 0.209-0.075 0.441 0 0.667 0.184 0.552 0.781 0.851 1.333 0.666 0.553-0.184 0.851-0.78 0.667-1.333l-0.666-1.999h0.252l0.707 0.707c0.196 0.195 0.451 0.293 0.707 0.293s0.512-0.098 0.707-0.293c0.391-0.39 0.391-1.023 0-1.414l-1.102-1.103c0.448-0.172 0.854-0.418 1.22-0.717l0.406 1.517c0.12 0.447 0.523 0.741 0.965 0.741 0.086 0 0.173-0.011 0.26-0.034 0.533-0.143 0.851-0.691 0.707-1.225l-0.397-1.48 1.662 1.874c0.146 0.165 0.345 0.285 0.577 0.333 0.57 0.117 1.128-0.251 1.244-0.821 0.117-0.57-0.251-1.127-0.821-1.244zM13.072 14.5c-1.379 0-2.5-1.121-2.5-2.5s1.121-2.5 2.5-2.5 2.5 1.121 2.5 2.5-1.121 2.5-2.5 2.5z"></path>
</svg>
