<!-- Generated by IcoMoon.io -->
<svg fill="#fff" version="1.1" xmlns="http://www.w3.org/2000/svg" width="24" height="24" viewBox="0 0 24 24">
<path d="M17 18c-0.553 0-1-0.447-1-1s0.447-1 1-1c1.654 0 3-1.346 3-3s-1.346-3-3-3c-0.238 0-0.496 0.042-0.813 0.131l-1.071 0.301-0.186-1.098c-0.326-1.932-1.979-3.334-3.93-3.334-2.205 0-4 1.794-4 4 0 0.274 0.027 0.545 0.082 0.806l0.26 1.24-1.436-0.052c-1.010 0.006-1.906 0.903-1.906 2.006s0.896 2 2 2c0.553 0 1 0.447 1 1s-0.447 1-1 1c-2.205 0-4-1.794-4-4 0-1.861 1.277-3.429 3.002-3.874-0.002-0.042-0.002-0.084-0.002-0.126 0-3.309 2.691-6 6-6 2.587 0 4.824 1.638 5.649 4.015 2.925-0.241 5.351 2.112 5.351 4.985 0 2.757-2.243 5-5 5z"></path>
<path d="M12.639 14l-4.5 4.051 3 1.449-1.5 3.5 4.5-4.050-3-1.45z"></path>
</svg>
